<svg width="40" height="40" viewBox="0 0 40 40" fill="none" xmlns="http://www.w3.org/2000/svg">
<path d="M29.4199 3.5L38.8477 20L29.4199 36.5H10.5801L1.15137 20L10.5801 3.5H29.4199Z" fill="#FFF085" stroke="#D08700" stroke-width="2"/>
<path d="M14.7317 12L10.4071 17.1909L10 17.6746L10.4071 18.2088L19.3641 29.6085L20 30.4228L20.6359 29.6085L29.5929 18.2088L30 17.6746L29.5929 17.1909L25.2675 12H14.7317ZM15.4955 13.6285H18.4724L16.2837 16.8856H12.7726L15.4955 13.6285ZM21.5259 13.6285H24.5029L27.2258 16.8856H23.7139L21.5259 13.6285ZM19.9992 14.3158L21.7295 16.8856H18.2689L19.9992 14.3158ZM12.696 18.5141H16.1314L18.0653 25.3588L12.696 18.5141ZM17.8113 18.5141H22.1619L19.9992 26.0974L17.8113 18.5141ZM23.8669 18.5141H27.3023L21.9331 25.3336L23.8669 18.5141Z" fill="#D08700"/>
</svg>
