<svg width="40" height="40" viewBox="0 0 40 40" fill="none" xmlns="http://www.w3.org/2000/svg">
<path d="M29.4199 3.5L38.8477 20L29.4199 36.5H10.5801L1.15137 20L10.5801 3.5H29.4199Z" fill="#F4A8FF" stroke="#8A0194" stroke-width="2"/>
<path d="M22.7002 20C22.3024 20 21.9208 19.842 21.6395 19.5607C21.3582 19.2794 21.2002 18.8978 21.2002 18.5C21.2002 18.1022 21.3582 17.7206 21.6395 17.4393C21.9208 17.158 22.3024 17 22.7002 17C23.098 17 23.4796 17.158 23.7609 17.4393C24.0422 17.7206 24.2002 18.1022 24.2002 18.5C24.2002 18.8978 24.0422 19.2794 23.7609 19.5607C23.4796 19.842 23.098 20 22.7002 20ZM25.1002 23C24.7024 23 24.3208 22.842 24.0395 22.5607C23.7582 22.2794 23.6002 21.8978 23.6002 21.5C23.6002 21.1022 23.7582 20.7206 24.0395 20.4393C24.3208 20.158 24.7024 20 25.1002 20C25.498 20 25.8796 20.158 26.1609 20.4393C26.4422 20.7206 26.6002 21.1022 26.6002 21.5C26.6002 21.8978 26.4422 22.2794 26.1609 22.5607C25.8796 22.842 25.498 23 25.1002 23Z" fill="#A800B7"/>
<path fill-rule="evenodd" clip-rule="evenodd" d="M25.3996 12.7998H14.5996C13.0083 12.7998 11.4822 13.4319 10.357 14.5572C9.23175 15.6824 8.59961 17.2085 8.59961 18.7998V21.1998C8.59961 22.7911 9.23175 24.3172 10.357 25.4424C11.4822 26.5677 13.0083 27.1998 14.5996 27.1998H25.3996C26.9909 27.1998 28.517 26.5677 29.6422 25.4424C30.7675 24.3172 31.3996 22.7911 31.3996 21.1998V18.7998C31.3996 17.2085 30.7675 15.6824 29.6422 14.5572C28.517 13.4319 26.9909 12.7998 25.3996 12.7998ZM10.9996 18.7998C10.9996 17.845 11.3789 16.9294 12.054 16.2542C12.7292 15.5791 13.6448 15.1998 14.5996 15.1998H25.3996C26.3544 15.1998 27.2701 15.5791 27.9452 16.2542C28.6203 16.9294 28.9996 17.845 28.9996 18.7998V21.1998C28.9996 22.1546 28.6203 23.0703 27.9452 23.7454C27.2701 24.4205 26.3544 24.7998 25.3996 24.7998H14.5996C13.6448 24.7998 12.7292 24.4205 12.054 23.7454C11.3789 23.0703 10.9996 22.1546 10.9996 21.1998V18.7998Z" fill="#A800B7"/>
<path d="M12.7996 21.1998C12.4813 21.1998 12.1761 21.0734 11.9511 20.8483C11.726 20.6233 11.5996 20.3181 11.5996 19.9998C11.5996 19.6815 11.726 19.3763 11.9511 19.1513C12.1761 18.9262 12.4813 18.7998 12.7996 18.7998H17.5996C17.9179 18.7998 18.2231 18.9262 18.4481 19.1513C18.6732 19.3763 18.7996 19.6815 18.7996 19.9998C18.7996 20.3181 18.6732 20.6233 18.4481 20.8483C18.2231 21.0734 17.9179 21.1998 17.5996 21.1998H12.7996Z" fill="#A800B7"/>
<path d="M16.4 22.3999C16.4 22.7182 16.2736 23.0234 16.0485 23.2484C15.8235 23.4735 15.5183 23.5999 15.2 23.5999C14.8817 23.5999 14.5765 23.4735 14.3515 23.2484C14.1264 23.0234 14 22.7182 14 22.3999V17.5999C14 17.2816 14.1264 16.9764 14.3515 16.7514C14.5765 16.5263 14.8817 16.3999 15.2 16.3999C15.5183 16.3999 15.8235 16.5263 16.0485 16.7514C16.2736 16.9764 16.4 17.2816 16.4 17.5999V22.3999Z" fill="#A800B7"/>
</svg>
